<?xml version="1.0" encoding="utf-8"?>
<!-- Generator: Adobe Illustrator 28.0.0, SVG Export Plug-In . SVG Version: 6.00 Build 0)  -->
<svg version="1.1" id="Layer_1" xmlns="http://www.w3.org/2000/svg" xmlns:xlink="http://www.w3.org/1999/xlink" x="0px" y="0px"
	 viewBox="0 0 410.3 201.3" style="enable-background:new 0 0 410.3 201.3;" xml:space="preserve">
<style type="text/css">
	.st0{fill:none;}
	.st1{fill:#FFDE17;}
	.st2{fill:#ED3868;}
	.st3{clip-path:url(#SVGID_00000075149764409900830860000014492125618116820411_);}
</style>
<path class="st0" d="M291,127.8"/>
<g>
	<g>
		<path class="st1" d="M44.3,59.1l5.4-27.6h-3.8l1.7-8.8h16.3c11.9,0,19,5.9,19,17.4c0,14.6-11.5,24.5-25.2,24.5h-9.5
			c-2.9,0-4.1-1.2-4.1-3.2C44,60.7,44.1,60,44.3,59.1z M56.8,55.7h1.2C65.5,55.7,72,50,72,40.8c0-6.4-3.1-9.4-9.3-9.4h-2.5
			l-4.3,22.1c-0.1,0.5-0.2,0.9-0.2,1.2C55.7,55.4,56,55.7,56.8,55.7z"/>
		<path class="st1" d="M101.8,33.7c8.5,0,12.9,4.9,12.9,11.8c0,2.8-1.1,5.8-1.1,5.8h-19c0,0-0.1,0.3-0.1,0.6c0,3,2.3,5,5.9,5
			c4.4,0,9-3,9-3l2.6,7.5c0,0-5.3,3.9-12.2,3.9c-10.3,0-15.4-6.1-15.4-13.2C84.4,41.6,91.8,33.7,101.8,33.7z M104.7,45.7
			c0,0,0.1-0.8,0.1-1.2c0-1.9-1.2-3.3-3.2-3.3c-2.9,0-4.9,2-5.8,4.4H104.7z"/>
		<path class="st1" d="M119.8,53.5c0,0,3.8,4,8.8,4c1.8,0,2.7-0.6,2.7-1.6c0-1.4-2-2-3.7-2.6c-4-1.4-9-3.6-9-9.7
			c0-7.1,7-9.9,13.3-9.9c6,0,12.7,2.2,11.6,7.8l-0.5,2.6h-8.5l0.1-0.6c0.3-1.5-1-2.2-2.9-2.2c-1.8,0-2.9,0.8-2.9,1.8
			c0,1.7,2.8,2.2,4.7,3c3.7,1.4,8.3,3.3,8.3,8.9c0,6.6-6.2,10.3-13.3,10.3c-8.5,0-13.2-5.2-13.2-5.2L119.8,53.5z"/>
		<path class="st1" d="M147.2,60.2l3-15.2c0.1-0.6,0.2-0.9,0.2-1.2c0-0.6-0.4-1-1.1-1h-2.2l1.6-8.5h9.1c2.6,0,3.9,0.9,3.9,3.1
			c0,0.5-0.1,1.1-0.2,1.8l-2.9,15c-0.1,0.3-0.1,0.6-0.1,0.8c0,0.6,0.2,0.9,1,0.9h2.2l-1.6,8.5h-9c-2.6,0-3.9-1.2-3.9-3.2
			C147.1,60.9,147.1,60.7,147.2,60.2z M155.2,22.7h8.5l-1.6,8.2h-8.5L155.2,22.7z"/>
		<path class="st1" d="M175.9,68.1c4.2,0,7-1.5,8.1-5.6c0.4-1.5,0.6-2.2,0.6-2.2h-0.1c-2,2.1-4.2,3.3-7.4,3.3
			c-8,0-11.7-5.7-11.7-12.6c0-8.4,5.9-17.3,16.1-17.3c6.8,0,8.4,3.9,8.4,3.9h0.1c0,0,0-0.4,0.1-0.9c0.2-0.8,1.5-2.3,3.7-2.3h9.3
			l-1.7,8.5h-2.2c-0.8,0-1.3,0.4-1.5,1.1l-3.6,18.1c-2.2,10.8-10.5,14.8-18,14.8c-8.3,0-12.5-2.8-12.5-2.8l4.2-7.8
			C168,66.2,170.8,68.1,175.9,68.1z M180.4,55.2c4.4,0,7-4.9,7-8.7c0-3.5-2.3-4.4-4.9-4.4c-4.2,0-6.7,3.6-6.7,8
			C175.7,53,177.1,55.2,180.4,55.2z"/>
		<path class="st1" d="M207.1,44.7c0.1-0.2,0.1-0.6,0.1-0.9c0-0.5-0.2-1-1.1-1H204l1.6-8.5h9c2.3,0,3.5,1.3,3.5,3
			c0,0.8-0.2,1.3-0.4,2h0.1c1.8-2.4,5.4-5.7,10.9-5.7c4.8,0,8.7,2.6,8.7,8.5c0,1-0.1,2.2-0.4,3.6l-1.6,8.5c-0.1,0.3-0.1,0.6-0.1,0.8
			c0,0.6,0.2,0.9,1,0.9h2.2l-1.6,8.5h-9.1c-2.6,0-3.9-1.2-3.9-3.2c0-0.4,0.1-0.7,0.1-1.1l2.6-13.4c0.1-0.4,0.1-0.9,0.1-1.3
			c0-1.5-0.5-2.7-2.8-2.7c-4,0-7.2,4.2-8,8.3l-2.6,13.3h-10.1L207.1,44.7z"/>
	</g>
	<g>
		<path class="st1" d="M14.5,76.3h-3.8l1.7-8.8H32c7,0,11.9,4.7,11.9,12.1c0,6.7-4.1,12.3-8.7,14.9c-2.2,1.2-4.7,2-7.6,2H21
			l-2.5,12.9H8L14.5,76.3z M26.6,87.6c3.6,0,6.5-3,6.5-7c0-2.9-1.6-4.3-4.1-4.3h-4.1l-2.2,11.4H26.6z"/>
		<path class="st1" d="M62.6,78.5c8.8,0,15.2,5.3,15.2,13.5c0,10.7-9.4,18-19.5,18c-8.7,0-15.2-5.3-15.2-13.5
			C43.1,85.9,52.5,78.5,62.6,78.5z M59.1,101.6c4,0,8.5-3.5,8.5-9c0-3.6-2.3-5.7-5.6-5.7c-4,0-8.5,3.6-8.5,9.1
			C53.4,99.6,55.7,101.6,59.1,101.6z"/>
		<path class="st1" d="M81,105.1l5.3-26.9c0.1-0.6,0.2-0.9,0.2-1.2c0-0.6-0.4-1-1.1-1h-2.2l1.6-8.5h9.1c2.6,0,3.9,0.9,3.9,3.1
			c0,0.5-0.1,1.1-0.2,1.8l-5.2,26.8c-0.1,0.3-0.1,0.6-0.1,0.8c0,0.6,0.2,0.9,1,0.9h2.3l-1.6,8.5h-9.1c-2.6,0-3.9-1.2-3.9-3.2
			C80.9,105.8,81,105.5,81,105.1z"/>
		<path class="st1" d="M100.5,105.1l3-15.2c0.1-0.6,0.2-0.9,0.2-1.2c0-0.6-0.4-1-1.1-1h-2.2l1.6-8.5h9.1c2.6,0,3.9,0.9,3.9,3.1
			c0,0.5-0.1,1.1-0.2,1.8l-2.9,15c-0.1,0.3-0.1,0.6-0.1,0.8c0,0.6,0.2,0.9,1,0.9h2.2l-1.6,8.5h-9c-2.6,0-3.9-1.2-3.9-3.2
			C100.3,105.8,100.4,105.5,100.5,105.1z M113.3,67.5h9.3l-8.5,8.8h-7.3L113.3,67.5z"/>
		<path class="st1" d="M121.5,97.6l2-10.5h-3.9l1.6-7.9h4.2l1.6-8.1h9.8l-1.6,8.1h6.3l-1.6,7.9h-6.3l-1.8,9.2
			c-0.1,0.4-0.1,0.8-0.1,1.1c0,2.9,2.7,3.3,4.3,3.3c1,0,1.6-0.1,1.6-0.1l-1.7,8.8c0,0-1.2,0.2-2.8,0.2c-4.3,0-12.1-1.6-12.1-9.4
			C121.2,99.5,121.3,98.6,121.5,97.6z"/>
		<path class="st1" d="M142.8,105.1l3-15.2c0.1-0.6,0.2-0.9,0.2-1.2c0-0.6-0.4-1-1.1-1h-2.2l1.6-8.5h9.1c2.6,0,3.9,0.9,3.9,3.1
			c0,0.5-0.1,1.1-0.2,1.8l-2.9,15c-0.1,0.3-0.1,0.6-0.1,0.8c0,0.6,0.2,0.9,1,0.9h2.2l-1.6,8.5h-9c-2.6,0-3.9-1.2-3.9-3.2
			C142.7,105.8,142.8,105.5,142.8,105.1z M150.9,67.5h8.5l-1.6,8.2h-8.5L150.9,67.5z"/>
		<path class="st1" d="M179.5,78.5c4.7,0,13.1,1.5,11.7,8.3l-0.6,3h-8.6l0.1-0.5c0.3-1.5-0.9-2.4-3.2-2.4c-4.9,0-7.7,4.5-7.7,8.3
			c0,2.9,1.6,6.3,6.7,6.3c5,0,8.7-3.3,8.7-3.3l2.6,7.7c0,0-4.2,4.2-12.5,4.2c-10.6,0-15.6-6.7-15.6-14
			C161,87.3,168.2,78.5,179.5,78.5z"/>
		<path class="st1" d="M212.5,78.5c8.8,0,15.2,5.3,15.2,13.5c0,10.7-9.4,18-19.5,18c-8.7,0-15.2-5.3-15.2-13.5
			C193,85.9,202.4,78.5,212.5,78.5z M208.9,101.6c4,0,8.5-3.5,8.5-9c0-3.6-2.3-5.7-5.6-5.7c-4,0-8.5,3.6-8.5,9.1
			C203.3,99.6,205.6,101.6,208.9,101.6z"/>
	</g>
</g>
<g>
	<path class="st2" d="M236.2,113.9c0,0,5.4,5.1,12.7,5.1c6.2,0,10.4-3.9,10.4-8.3c0-3.3-3.2-5.9-8.6-5.9c-1.4,0-3.2,0.2-3.2,0.2
		l-1.8-7l11.4-12.3c2.1-2.3,4.3-3.9,4.3-3.9v-0.2c0,0-2.4,0.4-4,0.4h-4.8c-1.2,0-2,0.7-2.3,1.9l-0.7,3.4H236l2.4-12.1
		c0.9-4.5,2.8-6.4,7.3-6.4h35.7l-2.1,10.9l-14.7,15.5c5.4,1.9,11,6.2,11,14.2c0,11-9.9,23.1-26.8,23.1c-13.4,0-20.6-8-20.6-8
		L236.2,113.9z"/>
	<path class="st2" d="M320.3,67.8c8.8,0,14,3,14,3l-5.6,12.4c0,0-3.9-1.8-8.8-1.8c-8,0-13.4,4.7-16.5,10.8h0.2
		c1.8-1.4,5.7-2.2,8.9-2.2c11.8,0,17.8,8.8,17.8,18.3c0,12-9.3,24.3-24.4,24.3c-12.2,0-22.7-7.9-22.7-23.7
		C283.1,90.6,297.2,67.8,320.3,67.8z M306.9,119c4.7,0,7.6-4.9,7.6-9.5c0-3.7-1.8-7.1-8-7.1c-5.9,0-7.9,3-7.9,7
		C298.7,114.8,302.6,119,306.9,119z"/>
	<path class="st2" d="M366.6,67.8c15.3,0,20.8,8.9,20.8,21.7c0,15.9-7.2,43-28.9,43c-15.3,0-20.7-9-20.7-21.9
		C337.8,94.7,344.8,67.8,366.6,67.8z M358.8,119c8.4,0,12.6-18.8,12.6-28.6c0-5.4-1.4-9-5.3-9c-8.5,0-12.5,19-12.5,28.6
		C353.6,115.4,355,119,358.8,119z"/>
</g>
<g>
	<defs>
		<path id="SVGID_1_" d="M403.7,80.6c-0.9-5-2.3-10-3.9-14.8c-1.7-4.9-3.8-9.5-6.2-14.1c-2.4-4.5-5.3-8.8-8.4-12.9
			c-6.3-8.2-14-15.2-22.5-20.9c-8.6-5.6-18.1-9.9-28-12.4c-4.9-1.3-10-2.2-15.1-2.6c-2.5-0.3-5.1-0.3-7.6-0.4c-2.5,0-5.1,0-7.6,0.3
			c-20.1,1.4-39.6,9.6-53.7,22.9l0.8,1c8.3-4.8,17-8.5,26-10.9c9-2.3,18.2-3.4,27.2-3.1c2.3,0,4.5,0.3,6.8,0.4
			c2.2,0.3,4.5,0.5,6.7,0.9l1.7,0.3c0.6,0.1,1.1,0.2,1.6,0.4c1.1,0.3,2.2,0.5,3.3,0.7l3.2,0.9c1.1,0.3,2.1,0.7,3.2,1
			c4.2,1.4,8.4,3.1,12.4,5.1c4,2,7.8,4.3,11.4,6.8l2.7,2c0.9,0.6,1.7,1.4,2.6,2.1l1.3,1l1.3,1.1c0.8,0.7,1.7,1.4,2.5,2.2
			c3.3,3,6.3,6.3,9.1,9.7c1.4,1.7,2.7,3.5,4,5.3l1.8,2.8c0.6,0.9,1.2,1.9,1.7,2.8c2.3,3.8,4.3,7.8,6,11.9c1.7,4.1,3,8.4,4.1,12.8
			c1,4.4,1.7,8.8,2.1,13.3c0.3,4.5,0.5,9,0.3,13.6c-0.3,4.5-0.8,9.1-1.7,13.6c-0.9,4.5-2.1,8.9-3.7,13.3c-1.6,4.4-3.6,8.6-5.9,12.6
			c-2.3,4-5,7.9-8,11.5c-3,3.6-6.3,6.9-9.9,9.9c-3.6,3-7.5,5.7-11.5,8c-4.1,2.3-8.4,4.2-12.8,5.8c-4.4,1.6-8.9,2.6-13.5,3.4
			c-2.3,0.4-4.6,0.6-6.9,0.9c-2.3,0.1-4.6,0.3-6.9,0.3c-2.3,0.1-4.6-0.1-6.8-0.2c-2.3-0.2-4.5-0.4-6.8-0.6l-6.7-1.1
			c-2.2-0.5-4.4-0.9-6.6-1.5c-8.7-2.2-17.1-5.5-24.9-10c-7.8-4.5-15-10.1-21.4-16.6c-4.9-5-9.2-10.5-13-16.5l10.4,0.9l-22.7-26.3
			l-3,34.7l8.7-7.5c7.1,16.6,19.5,31.2,35.2,41c8.6,5.4,18.1,9.4,28.1,11.6c9.9,2.2,20.3,2.5,30.2,1c2.5-0.3,5-0.8,7.4-1.3
			c2.4-0.6,4.9-1.2,7.2-1.9c4.8-1.5,9.4-3.2,13.9-5.3c1.1-0.5,2.2-1.1,3.3-1.6c1.1-0.6,2.2-1.1,3.3-1.7c1.1-0.6,2.2-1.2,3.2-1.8
			c1-0.6,2.1-1.3,3.1-1.9c4.1-2.6,8.1-5.5,11.9-8.6c3.8-3.1,7.3-6.5,10.6-10.1c0.8-0.9,1.7-1.8,2.5-2.7l2.4-2.8
			c1.5-1.9,3-3.9,4.4-5.9c5.7-8.1,10.2-17,13.4-26.5c1.5-4.8,2.7-9.7,3.5-14.7c0.7-5,1.1-10.1,1-15.1
			C405.1,90.7,404.6,85.6,403.7,80.6z"/>
	</defs>
	<clipPath id="SVGID_00000123435404247687715040000003163727992636640387_">
		<use xlink:href="#SVGID_1_"  style="overflow:visible;"/>
	</clipPath>
	<g style="clip-path:url(#SVGID_00000123435404247687715040000003163727992636640387_);">
		
			<image style="overflow:visible;" width="942" height="941" xlink:href="2EEA8988.png"  transform="matrix(0.24 0 0 0.24 195.6 -12.1928)">
		</image>
	</g>
</g>
</svg>
