<?xml version="1.0" encoding="utf-8"?>
<!-- Generator: Adobe Illustrator 27.9.0, SVG Export Plug-In . SVG Version: 6.00 Build 0)  -->
<svg version="1.1" id="Layer_1" xmlns="http://www.w3.org/2000/svg" xmlns:xlink="http://www.w3.org/1999/xlink" x="0px" y="0px"
	 viewBox="0 0 364 82" style="enable-background:new 0 0 364 82;" xml:space="preserve">
<style type="text/css">
	.st0{fill:#061F34;}
	.st1{fill:#EFF0F3;}
	.st2{fill:#21409A;}
	.st3{fill:#55A1D8;}
	.st4{fill:#EE3868;}
	.st5{fill:#00A14B;}
	.st6{fill:#FFDE17;}
	.st7{fill:#070C0F;}
	.st8{fill:none;stroke:#00A14B;stroke-miterlimit:10;}
	.st9{fill:none;stroke:#21A34A;stroke-miterlimit:10;}
	.st10{fill:none;stroke:#36A54A;stroke-miterlimit:10;}
	.st11{fill:none;stroke:#45A749;stroke-miterlimit:10;}
	.st12{fill:none;stroke:#52A948;stroke-miterlimit:10;}
	.st13{fill:none;stroke:#5DAB47;stroke-miterlimit:10;}
	.st14{fill:none;stroke:#67AD46;stroke-miterlimit:10;}
	.st15{fill:none;stroke:#70AF45;stroke-miterlimit:10;}
	.st16{fill:none;stroke:#79B144;stroke-miterlimit:10;}
	.st17{fill:none;stroke:#81B343;stroke-miterlimit:10;}
	.st18{fill:none;stroke:#89B542;stroke-miterlimit:10;}
	.st19{fill:none;stroke:#91B741;stroke-miterlimit:10;}
	.st20{fill:none;stroke:#99BA3F;stroke-miterlimit:10;}
	.st21{fill:none;stroke:#A1BC3E;stroke-miterlimit:10;}
	.st22{fill:none;stroke:#A9BE3C;stroke-miterlimit:10;}
	.st23{fill:none;stroke:#B0C13A;stroke-miterlimit:10;}
	.st24{fill:none;stroke:#B8C339;stroke-miterlimit:10;}
	.st25{fill:none;stroke:#BFC637;stroke-miterlimit:10;}
	.st26{fill:none;stroke:#C7C834;stroke-miterlimit:10;}
	.st27{fill:none;stroke:#CECB32;stroke-miterlimit:10;}
	.st28{fill:none;stroke:#D6CD30;stroke-miterlimit:10;}
	.st29{fill:none;stroke:#DDD02D;stroke-miterlimit:10;}
	.st30{fill:none;stroke:#E4D22A;stroke-miterlimit:10;}
	.st31{fill:none;stroke:#EBD526;stroke-miterlimit:10;}
	.st32{fill:none;stroke:#F3D723;stroke-miterlimit:10;}
	.st33{fill:none;stroke:#FADA1E;stroke-miterlimit:10;}
	.st34{fill:none;stroke:#FFDE17;stroke-miterlimit:10;}
	.st35{fill:none;stroke:#EE3868;stroke-miterlimit:10;}
	.st36{fill:none;stroke:#E5396A;stroke-miterlimit:10;}
	.st37{fill:none;stroke:#DF3A6C;stroke-miterlimit:10;}
	.st38{fill:none;stroke:#D83A6E;stroke-miterlimit:10;}
	.st39{fill:none;stroke:#D13B70;stroke-miterlimit:10;}
	.st40{fill:none;stroke:#CA3B72;stroke-miterlimit:10;}
	.st41{fill:none;stroke:#C33B74;stroke-miterlimit:10;}
	.st42{fill:none;stroke:#BC3C76;stroke-miterlimit:10;}
	.st43{fill:none;stroke:#B53C78;stroke-miterlimit:10;}
	.st44{fill:none;stroke:#AE3D7A;stroke-miterlimit:10;}
	.st45{fill:none;stroke:#A73D7B;stroke-miterlimit:10;}
	.st46{fill:none;stroke:#A13D7D;stroke-miterlimit:10;}
	.st47{fill:none;stroke:#9A3D7F;stroke-miterlimit:10;}
	.st48{fill:none;stroke:#933E81;stroke-miterlimit:10;}
	.st49{fill:none;stroke:#8C3E83;stroke-miterlimit:10;}
	.st50{fill:none;stroke:#853E85;stroke-miterlimit:10;}
	.st51{fill:none;stroke:#7E3E86;stroke-miterlimit:10;}
	.st52{fill:none;stroke:#773F88;stroke-miterlimit:10;}
	.st53{fill:none;stroke:#703F8A;stroke-miterlimit:10;}
	.st54{fill:none;stroke:#683F8C;stroke-miterlimit:10;}
	.st55{fill:none;stroke:#603F8E;stroke-miterlimit:10;}
	.st56{fill:none;stroke:#583F8F;stroke-miterlimit:10;}
	.st57{fill:none;stroke:#4F3F91;stroke-miterlimit:10;}
	.st58{fill:none;stroke:#463F93;stroke-miterlimit:10;}
	.st59{fill:none;stroke:#3B4095;stroke-miterlimit:10;}
	.st60{fill:none;stroke:#2F4097;stroke-miterlimit:10;}
	.st61{fill:none;stroke:#21409A;stroke-miterlimit:10;}
	.st62{opacity:0.75;}
	.st63{fill:#231F20;}
	.st64{fill:#0A1D2F;}
	.st65{fill:#0C1B29;}
	.st66{fill:#0C1822;}
	.st67{fill:#0B141B;}
	.st68{fill:#0A1217;}
	.st69{fill:#18344C;}
	.st70{fill:#284A66;}
	.st71{fill:#366285;}
	.st72{fill:#447DA8;}
	.st73{fill:#4F9DD6;}
	.st74{fill:#2F4EA2;}
	.st75{fill:#3D5DAA;}
	.st76{fill:#4B6BB3;}
	.st77{fill:#5A7ABC;}
	.st78{fill:#678BC7;}
	.st79{fill:#EF4A73;}
	.st80{fill:#F0597F;}
	.st81{fill:#F1678B;}
	.st82{fill:#F27498;}
	.st83{fill:#F280A6;}
	.st84{fill:#3AA958;}
	.st85{fill:#58B16A;}
	.st86{fill:#6FBA7E;}
	.st87{fill:#84C491;}
	.st88{fill:#98D1A5;}
	.st89{fill:#FFE13D;}
	.st90{fill:#FFE45A;}
	.st91{fill:#FFE772;}
	.st92{fill:#FFEA86;}
	.st93{fill:#FFEE99;}
	.st94{fill:#949292;}
	.st95{fill:#AAA8A8;}
	.st96{fill:#C2C0BF;}
	.st97{fill:#DCDBDA;}
	.st98{fill:#394154;}
	.st99{fill:#696C7D;}
	.st100{fill:#A5A6B1;}
	.st101{fill:#F7F7FB;}
	.st102{fill:#234866;}
	.st103{fill:#557899;}
	.st104{fill:#9FB3CA;}
	.st105{fill:#FFFFFF;}
	.st106{fill:#40403F;}
	.st107{fill:#22377C;}
	.st108{fill:#1E2E62;}
	.st109{fill:#162449;}
	.st110{fill:#0C1832;}
	.st111{fill:#C4315A;}
	.st112{fill:#A22A4E;}
	.st113{fill:#822242;}
	.st114{fill:#661A36;}
	.st115{fill:#018942;}
	.st116{fill:#077439;}
	.st117{fill:#075F30;}
	.st118{fill:#034C26;}
	.st119{fill:#3A59A8;}
	.st120{fill:#EF427A;}
	.st121{fill:#32B453;}
	.st122{fill:#D9B927;}
	.st123{fill:#B89D2B;}
	.st124{fill:#99832C;}
	.st125{fill:#7F6D2B;}
	.st126{fill:#7F7F7F;}
	.st127{fill:#787878;}
	.st128{fill:#69696A;}
	.st129{fill:#515152;}
	.st130{fill:#EC008C;}
	.st131{fill:none;stroke:#231F20;stroke-width:3;stroke-linecap:round;stroke-linejoin:round;stroke-miterlimit:10;}
	.st132{fill:url(#SVGID_1_);}
	.st133{fill:#0F4D81;}
	.st134{opacity:0.5;fill:url(#SVGID_00000087403036282282506670000013283983867308157600_);}
	.st135{opacity:0.5;fill:url(#SVGID_00000021088089051098233330000007241189484429942937_);}
	.st136{fill:none;stroke:#55A1D8;stroke-width:20;stroke-miterlimit:10;}
	.st137{opacity:0.25;fill:url(#SVGID_00000163775908765858560590000000812701766890411178_);}
	.st138{fill:none;stroke:#FFDE17;stroke-width:4;stroke-linecap:round;stroke-linejoin:round;}
	.st139{fill:none;stroke:#FFDE17;stroke-width:4;stroke-linecap:round;stroke-linejoin:round;stroke-dasharray:13.4035,13.4035;}
	.st140{fill:none;stroke:#FFDE17;stroke-width:4;stroke-linecap:round;stroke-linejoin:round;stroke-dasharray:12.0524,12.0524;}
	.st141{fill:#B491C3;}
	.st142{opacity:0.4;fill:#EFF0F3;}
	.st143{opacity:0.5;}
	.st144{opacity:0.5;fill:#21409A;}
	.st145{fill:#0A4366;}
	.st146{fill:#0D3A59;}
	.st147{fill:#0D314D;}
	.st148{fill:#0A2840;}
	.st149{fill:#231F20;stroke:#231F20;stroke-miterlimit:10;}
	.st150{fill:none;stroke:#231F20;stroke-miterlimit:10;}
</style>
<g>
	<g>
		
			<image style="overflow:visible;" width="334" height="334" xlink:href="7122D7B3.png"  transform="matrix(0.24 0 0 0.24 1.584 0.9426)">
		</image>
	</g>
	<circle class="st0" cx="41.6" cy="41" r="32.2"/>
	<g>
		<g>
			<path class="st1" d="M38.3,19.8c-0.8-0.2-2.1-0.2-3.2-0.2c-6.7,0-9.7,4.1-9.7,10.4v2.3c0,0.3-0.3,0.6-0.6,0.6h-3.5
				c-0.3,0-0.6,0.3-0.6,0.6V38c0,0.3,0.3,0.6,0.6,0.6h3.5c0.3,0,0.6,0.3,0.6,0.6v22.7c0,0.3,0.3,0.6,0.6,0.6h6.3
				c0.3,0,0.6-0.3,0.6-0.6V39.2c0-0.3,0.3-0.6,0.6-0.6h4.5c0.3,0,0.6-0.3,0.6-0.6v-4.4c0-0.3-0.3-0.6-0.6-0.6h-4.5
				c-0.3,0-0.6-0.3-0.6-0.6v-1.9c0-3.5,1-4.7,3.8-4.7c0.4,0,0.9,0,1.4,0.1c0.4,0,0.7-0.2,0.7-0.6v-4.7
				C38.8,20.1,38.6,19.9,38.3,19.8z"/>
			<path class="st1" d="M61.8,55.4h-6.3c-0.3,0-0.6,0.3-0.6,0.6v5.8c0,0.3,0.3,0.6,0.6,0.6h6.3c0.3,0,0.6-0.3,0.6-0.6V56
				C62.4,55.6,62.2,55.4,61.8,55.4z"/>
			<path class="st1" d="M58.7,38.7v-5.9c0-0.3-0.3-0.6-0.6-0.6c-4,0.2-6.8,1.9-8.6,4.4c-0.3,0.5-1.1,0.3-1.1-0.3
				c0-1.1-0.1-2.1-0.1-2.8c0-0.3-0.3-0.6-0.6-0.6h-6.1c-0.3,0-0.6,0.3-0.6,0.6c0,2.2,0,4.6,0,7.4v20.9c0,0.3,0.3,0.6,0.6,0.6h6.3
				c0.3,0,0.6-0.3,0.6-0.6V49.8c0-7.8,3.8-10.4,9.7-10.5C58.4,39.3,58.7,39,58.7,38.7z"/>
		</g>
	</g>
	<g>
		<g>
			<path class="st0" d="M105.6,23.7c-0.7-0.1-1.7-0.2-2.5-0.2c-5.4,0-7.8,3.3-7.8,8.3v1.9c0,0.3-0.2,0.5-0.5,0.5H92
				c-0.3,0-0.5,0.2-0.5,0.5v3.6c0,0.3,0.2,0.5,0.5,0.5h2.8c0.3,0,0.5,0.2,0.5,0.5v18.2c0,0.3,0.2,0.5,0.5,0.5h5
				c0.3,0,0.5-0.2,0.5-0.5V39.3c0-0.3,0.2-0.5,0.5-0.5h3.6c0.3,0,0.5-0.2,0.5-0.5v-3.6c0-0.3-0.2-0.5-0.5-0.5h-3.6
				c-0.3,0-0.5-0.2-0.5-0.5v-1.6c0-2.8,0.8-3.8,3.1-3.8c0.4,0,0.7,0,1.1,0.1c0.3,0,0.5-0.2,0.5-0.5v-3.8
				C106,24,105.8,23.8,105.6,23.7z"/>
			<path class="st0" d="M114.2,24h-5c-0.3,0-0.5,0.2-0.5,0.5v33c0,0.3,0.2,0.5,0.5,0.5h5c0.3,0,0.5-0.2,0.5-0.5v-33
				C114.7,24.2,114.5,24,114.2,24z"/>
			<path class="st0" d="M140,41.9c0-5-2.8-8.2-10.1-8.2c-7.3,0-9.7,3.5-10.2,6.9c0,0.3,0.2,0.6,0.5,0.6h4.9c0.2,0,0.4-0.2,0.5-0.4
				c0.4-1.5,1.2-2.8,4.3-2.8c3.7,0,4.4,1.9,4.4,3.8v0.9c0,0.3-0.2,0.5-0.5,0.5H130c-7,0-11.6,2.2-11.6,7.8c0,3.7,2.5,7.5,8.4,7.5
				c3.5,0,5.5-1,6.7-2.3c0.3-0.3,0.8-0.1,0.8,0.3c0,0.4,0.1,0.7,0.1,1c0,0.2,0.2,0.4,0.5,0.4h4.8c0.3,0,0.5-0.2,0.5-0.5
				c-0.1-1.1-0.2-3.5-0.2-5.5V41.9z M134.1,47.6c0,3.5-1,6.5-5.8,6.5c-2.7,0-4-1.5-4-3.4c0-2.5,1.8-3.7,6.1-3.7c1.6,0,3.1,0,3.7,0
				V47.6z"/>
			<path class="st0" d="M127.4,30.5h4.1c0.1,0,0.2,0,0.3-0.1l6.5-6c0.3-0.3,0.1-0.8-0.3-0.8h-5.6c-0.1,0-0.3,0.1-0.4,0.2l-5,6
				C126.8,30,127,30.5,127.4,30.5z"/>
			<path class="st0" d="M165.3,34.2h-5c-0.2,0-0.4,0.1-0.5,0.3c-3.1,8.8-5.1,14.8-5.8,18H154c-0.6-2.8-2.9-9.8-5.6-18
				c-0.1-0.2-0.3-0.3-0.5-0.3h-5.4c-0.3,0-0.6,0.3-0.5,0.7l8.4,22.7c0.1,0.2,0.3,0.3,0.5,0.3h5.8c0.2,0,0.4-0.1,0.5-0.3l8.6-22.7
				C165.9,34.6,165.6,34.2,165.3,34.2z"/>
			<path class="st0" d="M174,34.2h-5c-0.3,0-0.5,0.2-0.5,0.5v22.7c0,0.3,0.2,0.5,0.5,0.5h5c0.3,0,0.5-0.2,0.5-0.5V34.7
				C174.5,34.5,174.3,34.2,174,34.2z"/>
			<path class="st0" d="M174,24h-5c-0.3,0-0.5,0.2-0.5,0.5v4.7c0,0.3,0.2,0.5,0.5,0.5h5c0.3,0,0.5-0.2,0.5-0.5v-4.7
				C174.5,24.2,174.3,24,174,24z"/>
			<path class="st0" d="M190.5,33.7c-7.8,0-12.2,5.5-12.2,12.5c0,6.9,4.3,12.4,11.9,12.4c7.8,0,12.2-5.4,12.2-12.5
				C202.4,39.1,198,33.7,190.5,33.7z M190.3,53.8c-3.8,0-6-3.2-6-7.7c0-4.8,2.1-7.7,5.9-7.7c3.9,0,6,3.1,6,7.8
				C196.3,50.7,194.2,53.8,190.3,53.8z"/>
			<path class="st0" d="M230.7,33.7c-3.2,0.1-5.5,1.5-6.9,3.5c-0.3,0.4-0.9,0.2-0.9-0.3c0-0.9-0.1-1.7-0.1-2.2
				c0-0.3-0.2-0.4-0.5-0.4h-4.9c-0.3,0-0.5,0.2-0.5,0.5c0,1.7,0,3.7,0,5.9v16.8c0,0.3,0.2,0.5,0.5,0.5h5c0.3,0,0.5-0.2,0.5-0.5v-9.7
				c0-6.3,3-8.3,7.8-8.4c0.3,0,0.5-0.2,0.5-0.5v-4.7C231.2,33.9,231,33.7,230.7,33.7z"/>
			<path class="st0" d="M239.5,24h-5c-0.3,0-0.5,0.2-0.5,0.5v4.7c0,0.3,0.2,0.5,0.5,0.5h5c0.3,0,0.5-0.2,0.5-0.5v-4.7
				C240,24.2,239.7,24,239.5,24z"/>
			<path class="st0" d="M239.5,34.2h-5c-0.3,0-0.5,0.2-0.5,0.5v22.7c0,0.3,0.2,0.5,0.5,0.5h5c0.3,0,0.5-0.2,0.5-0.5V34.7
				C240,34.5,239.7,34.2,239.5,34.2z"/>
			<path class="st0" d="M255.5,38.4c2.9,0,4.2,1.5,4.8,3.3c0.1,0.2,0.3,0.4,0.5,0.4h5c0.3,0,0.5-0.3,0.5-0.6
				c-0.5-2.9-3.1-7.8-10.7-7.8c-7.6,0-11.8,5.8-11.8,12.5c0,7.1,3.9,12.3,11.6,12.3c6.6,0,9.7-3.7,10.8-7.6c0.1-0.3-0.1-0.6-0.5-0.6
				h-5c-0.2,0-0.4,0.1-0.4,0.3c-0.8,2-2.3,3.2-4.8,3.2c-3.6,0-5.6-2.9-5.6-7.8C249.9,41.4,251.8,38.4,255.5,38.4z"/>
			<path class="st0" d="M290.1,41.9c0-5-2.8-8.2-10.1-8.2c-7.3,0-9.7,3.5-10.2,6.9c0,0.3,0.2,0.6,0.5,0.6h4.9c0.2,0,0.4-0.2,0.5-0.4
				c0.4-1.5,1.2-2.8,4.3-2.8c3.7,0,4.4,1.9,4.4,3.8v0.9c0,0.3-0.2,0.5-0.5,0.5h-3.6c-7,0-11.6,2.2-11.6,7.8c0,3.7,2.5,7.5,8.4,7.5
				c3.5,0,5.5-1,6.7-2.3c0.3-0.3,0.8-0.1,0.8,0.3c0,0.4,0.1,0.7,0.1,1c0,0.2,0.2,0.4,0.5,0.4h4.8c0.3,0,0.5-0.2,0.5-0.5
				c-0.1-1.1-0.2-3.5-0.2-5.5V41.9z M284.2,47.6c0,3.5-1,6.5-5.8,6.5c-2.7,0-4-1.5-4-3.4c0-2.5,1.8-3.7,6.1-3.7c1.6,0,3.1,0,3.7,0
				V47.6z"/>
			<path class="st0" d="M309.1,33.7c-3.2,0.1-5.5,1.5-6.9,3.5c-0.3,0.4-0.9,0.2-0.9-0.3c0-0.9-0.1-1.7-0.1-2.2
				c0-0.3-0.2-0.4-0.5-0.4h-4.9c-0.3,0-0.5,0.2-0.5,0.5c0,1.7,0,3.7,0,5.9v16.8c0,0.3,0.2,0.5,0.5,0.5h5c0.3,0,0.5-0.2,0.5-0.5v-9.7
				c0-6.3,3-8.3,7.8-8.4c0.3,0,0.5-0.2,0.5-0.5v-4.7C309.6,33.9,309.4,33.7,309.1,33.7z"/>
			<path class="st0" d="M334.5,24.5c0-0.3-0.2-0.5-0.5-0.5h-5c-0.3,0-0.5,0.2-0.5,0.5V35c0,0.4-0.5,0.6-0.8,0.4
				c-1-0.9-2.8-1.7-5.7-1.7c-6.4,0-11.2,5.1-11.2,12.6c0,7.3,4.1,12.2,10.4,12.2c3.4,0,5.3-0.9,6.6-2.4c0.3-0.3,0.8-0.1,0.8,0.3
				c0,0.4,0.1,0.8,0.1,1.1c0,0.2,0.2,0.4,0.5,0.4h4.9c0.3,0,0.5-0.2,0.5-0.5c0-2,0-4.1,0-6.1V24.5z M322.8,53.7
				c-3.7,0-5.8-2.9-5.8-7.5c0-4.5,2.1-7.7,6-7.7c4.7,0,5.7,3.1,5.7,7.5C328.7,50.1,327.5,53.7,322.8,53.7z"/>
			<path class="st0" d="M350.5,33.7c-7.8,0-12.2,5.5-12.2,12.5c0,6.9,4.3,12.4,11.9,12.4c7.8,0,12.2-5.4,12.2-12.5
				C362.4,39.1,358,33.7,350.5,33.7z M350.4,53.8c-3.8,0-6-3.2-6-7.7c0-4.8,2.1-7.7,5.9-7.7c3.9,0,6,3.1,6,7.8
				C356.3,50.7,354.2,53.8,350.4,53.8z"/>
		</g>
	</g>
</g>
</svg>
