<?xml version="1.0" encoding="utf-8"?>
<!-- Generator: Adobe Illustrator 28.0.0, SVG Export Plug-In . SVG Version: 6.00 Build 0)  -->
<svg version="1.1" id="Layer_1" xmlns="http://www.w3.org/2000/svg" xmlns:xlink="http://www.w3.org/1999/xlink" x="0px" y="0px"
	 viewBox="0 0 96 96" style="enable-background:new 0 0 96 96;" xml:space="preserve">
<style type="text/css">
	.st0{fill:none;stroke:#ED3868;stroke-linecap:round;stroke-linejoin:round;stroke-miterlimit:10;}
	.st1{fill:#223F99;}
	.st2{fill:#ED3868;}
	.st3{fill:#00A14B;}
	.st4{fill:#FFDD15;}
</style>
<g>
	<path class="st0" d="M9.6,34.2v29.9c0,7.7,6.3,14,14,14h43.2"/>
	<path class="st0" d="M86.4,61.8V31.9c0-7.7-6.3-14-14-14H29.3"/>
	<path class="st0" d="M30.4,69.2h41.8c2.8,0,5-2.2,5-5V31.8c0-2.8-2.2-5-5-5H23.8c-2.8,0-5,2.2-5,5v32.4c0,2.8,2.2,5,5,5h1.9
		l14.6-19.4l5.4,6.4l10.7-16.1L72,63.6"/>
	<circle class="st0" cx="33.6" cy="39.4" r="5.2"/>
</g>
<rect x="-276.6" y="-67" class="st1" width="53.1" height="53.1"/>
<rect x="-276.6" y="-3.2" class="st2" width="53.1" height="53.1"/>
<rect x="-276.6" y="60.6" class="st3" width="53.1" height="53.1"/>
<rect x="-276.6" y="124.4" class="st4" width="53.1" height="53.1"/>
</svg>
