<?xml version="1.0" encoding="utf-8"?>
<!-- Generator: Adobe Illustrator 27.7.0, SVG Export Plug-In . SVG Version: 6.00 Build 0)  -->
<svg version="1.1" id="Layer_1" xmlns="http://www.w3.org/2000/svg" xmlns:xlink="http://www.w3.org/1999/xlink" x="0px" y="0px"
	 viewBox="0 0 96 96" style="enable-background:new 0 0 96 96;" xml:space="preserve">
<style type="text/css">
	.st0{fill:none;stroke:#21409A;stroke-linecap:round;stroke-linejoin:round;stroke-miterlimit:10;}
</style>
<g>
	<path class="st0" d="M50.5,68.5h29c4.7,0,8.5-3.8,8.5-8.5V24.3c0-4.7-3.8-8.5-8.5-8.5H36.7c-4.7,0-8.5,3.8-8.5,8.5v3"/>
	<path class="st0" d="M48.4,74.9c-1.2-7.5-5.2-11.4-10.7-14.1c-0.6-0.3-1.3-0.4-1.9-0.4H20.6c-0.7,0-1.3,0.1-1.9,0.4
		C13.2,63.6,9.2,67.4,8,74.9c-0.4,2.7,1.7,5.2,4.4,5.2H44C46.7,80.1,48.8,77.7,48.4,74.9z"/>
	<circle class="st0" cx="28.2" cy="44.3" r="11.7"/>
</g>
</svg>
