<?xml version="1.0" encoding="utf-8"?>
<!-- Generator: Adobe Illustrator 28.0.0, SVG Export Plug-In . SVG Version: 6.00 Build 0)  -->
<svg version="1.1" id="Layer_1" xmlns="http://www.w3.org/2000/svg" xmlns:xlink="http://www.w3.org/1999/xlink" x="0px" y="0px"
	 viewBox="0 0 96 96" style="enable-background:new 0 0 96 96;" xml:space="preserve">
<style type="text/css">
	.st0{fill:none;stroke:#223F99;stroke-linecap:round;stroke-linejoin:round;stroke-miterlimit:10;}
	.st1{fill:none;stroke:#21409A;stroke-linecap:round;stroke-linejoin:round;stroke-miterlimit:10;}
	.st2{fill:#223F99;}
	.st3{fill:#ED3868;}
	.st4{fill:#00A14B;}
	.st5{fill:#FFDD15;}
</style>
<path class="st0" d="M72.9,26.3c-0.5,0.2-1.1,0.1-1.4-0.3c-0.5-0.5-0.9-1-1.4-1.4c-0.4-0.4-0.5-0.9-0.3-1.4l2.8-6.6
	c0.3-0.6,0-1.3-0.5-1.6l-7.3-4.2c-0.6-0.3-1.3-0.2-1.7,0.3l-4.3,5.7c-0.3,0.4-0.9,0.6-1.4,0.4c-0.6-0.2-1.3-0.4-2-0.5
	c-0.5-0.1-0.9-0.5-1-1.1l-0.9-7.1c-0.1-0.6-0.6-1.1-1.3-1.1h-8.4c-0.6,0-1.2,0.5-1.3,1.1l-0.9,7.1c-0.1,0.5-0.5,1-1,1.1
	c-0.7,0.2-1.3,0.3-2,0.5c-0.5,0.2-1.1,0-1.4-0.4L33,11.1c-0.4-0.5-1.1-0.7-1.7-0.3L24,14.9c-0.6,0.3-0.8,1-0.5,1.6l2.8,6.6
	c0.2,0.5,0.1,1.1-0.3,1.4c-0.5,0.5-1,0.9-1.4,1.4c-0.4,0.4-0.9,0.5-1.4,0.3l-6.6-2.8c-0.6-0.3-1.3,0-1.6,0.5l-4.2,7.3
	c-0.3,0.6-0.2,1.3,0.3,1.7l5.7,4.3c0.4,0.3,0.6,0.9,0.4,1.4c-0.2,0.6-0.4,1.3-0.5,2c-0.1,0.5-0.5,0.9-1.1,1l-7.1,0.9
	c-0.6,0.1-1.1,0.6-1.1,1.3v8.4c0,0.6,0.5,1.2,1.1,1.3l7.1,0.9c0.5,0.1,1,0.5,1.1,1c0.2,0.7,0.3,1.3,0.5,2c0.2,0.5,0,1.1-0.4,1.4
	L11.1,63c-0.5,0.4-0.7,1.1-0.3,1.7L15,72c0.3,0.6,1,0.8,1.6,0.5l6.6-2.8c0.5-0.2,1.1-0.1,1.4,0.3c0.5,0.5,0.9,1,1.4,1.4
	c0.4,0.4,0.5,0.9,0.3,1.4l-2.8,6.6c-0.3,0.6,0,1.3,0.5,1.6l7.3,4.2c0.6,0.3,1.3,0.2,1.7-0.3l4.3-5.7c0.3-0.4,0.9-0.6,1.4-0.4
	c0.6,0.2,1.3,0.4,2,0.5c0.5,0.1,0.9,0.5,1,1.1l0.9,7.1c0.1,0.6,0.6,1.1,1.3,1.1h8.4c0.6,0,1.2-0.5,1.3-1.1l0.9-7.1
	c0.1-0.5,0.5-1,1-1.1c0.7-0.2,1.3-0.3,2-0.5c0.5-0.2,1.1,0,1.4,0.4l4.3,5.7c0.4,0.5,1.1,0.7,1.7,0.3l7.3-4.2c0.6-0.3,0.8-1,0.5-1.6
	l-2.8-6.6c-0.2-0.5-0.1-1.1,0.3-1.4c0.5-0.5,1-0.9,1.4-1.4c0.4-0.4,0.9-0.5,1.4-0.3l6.6,2.8c0.6,0.3,1.3,0,1.6-0.5l4.2-7.3
	c0.3-0.6,0.2-1.3-0.3-1.7l-5.7-4.3c-0.4-0.3-0.6-0.9-0.4-1.4c0.2-0.6,0.4-1.3,0.5-2c0.1-0.5,0.5-0.9,1.1-1l7.1-0.9
	c0.6-0.1,1.1-0.6,1.1-1.3v-8.4c0-0.6-0.5-1.2-1.1-1.3l-7.1-0.9c-0.5-0.1-1-0.5-1.1-1c-0.2-0.7-0.3-1.3-0.5-2c-0.2-0.5,0-1.1,0.4-1.4
	l5.7-4.3c0.5-0.4,0.7-1.1,0.3-1.7L81.1,24c-0.3-0.6-1-0.8-1.6-0.5"/>
<path class="st1" d="M41.9,59.8c5,2.6,11.3,1.8,15.5-2.4c5.2-5.2,5.2-13.6,0-18.8s-13.6-5.2-18.8,0s-5.2,13.6,0,18.8"/>
<rect x="-227.6" y="-126" class="st2" width="53.1" height="53.1"/>
<rect x="-227.6" y="-62.2" class="st3" width="53.1" height="53.1"/>
<rect x="-227.6" y="1.6" class="st4" width="53.1" height="53.1"/>
<rect x="-227.6" y="65.4" class="st5" width="53.1" height="53.1"/>
</svg>
