<?xml version="1.0" encoding="utf-8"?>
<!-- Generator: Adobe Illustrator 27.7.0, SVG Export Plug-In . SVG Version: 6.00 Build 0)  -->
<svg version="1.1" id="Layer_1" xmlns="http://www.w3.org/2000/svg" xmlns:xlink="http://www.w3.org/1999/xlink" x="0px" y="0px"
	 viewBox="0 0 96 96" style="enable-background:new 0 0 96 96;" xml:space="preserve">
<style type="text/css">
	.st0{fill:none;stroke:#21409A;stroke-linecap:round;stroke-linejoin:round;stroke-miterlimit:10;}
</style>
<g>
	<path class="st0" d="M30.2,67.8V28.2c0.4-4.4,4-8,8.5-8h35.2c4.4,0,8,3.6,8,8v39.6c0,4.4-3.6,8-8,8H29.3"/>
	<path class="st0" d="M30.2,67.8c0,4.4-3.6,8-8,8c-5.6,0-8-3.6-8-8V34.9c0-4.4,3.6-8,8-8v40.8"/>
	<g>
		<rect x="39.5" y="29.6" class="st0" width="18.4" height="15.5"/>
		<line class="st0" x1="61.5" y1="29.6" x2="72.5" y2="29.6"/>
		<line class="st0" x1="61.5" y1="34.7" x2="72.5" y2="34.7"/>
		<line class="st0" x1="61.5" y1="39.9" x2="72.5" y2="39.9"/>
		<line class="st0" x1="61.5" y1="45" x2="72.5" y2="45"/>
		<line class="st0" x1="39.5" y1="50.2" x2="72.5" y2="50.2"/>
		<line class="st0" x1="39.5" y1="55.4" x2="72.5" y2="55.4"/>
		<line class="st0" x1="39.5" y1="60.5" x2="72.5" y2="60.5"/>
		<line class="st0" x1="39.5" y1="65.7" x2="72.5" y2="65.7"/>
	</g>
</g>
</svg>
