<?xml version="1.0" encoding="utf-8"?>
<!-- Generator: Adobe Illustrator 27.7.0, SVG Export Plug-In . SVG Version: 6.00 Build 0)  -->
<svg version="1.1" id="Layer_1" xmlns="http://www.w3.org/2000/svg" xmlns:xlink="http://www.w3.org/1999/xlink" x="0px" y="0px"
	 viewBox="0 0 96 96" style="enable-background:new 0 0 96 96;" xml:space="preserve">
<style type="text/css">
	.st0{fill:none;stroke:#21409A;stroke-linecap:round;stroke-linejoin:round;stroke-miterlimit:10;}
</style>
<g>
	<circle class="st0" cx="30" cy="22.1" r="5.7"/>
	<path class="st0" d="M57,36L57,36c0,2.2-1.7,3.9-3.9,3.9H39v35.8c0,2.2-1.7,3.9-3.9,3.9h0c-2.2,0-3.9-1.7-3.9-3.9V60.1h-2.4v15.6
		c0,2.2-1.7,3.9-3.9,3.9h0c-2.2,0-3.9-1.7-3.9-3.9V47.6l-4.5,6.5c-1.1,1.6-3.3,2-4.9,0.9l0,0c-1.5-1.1-2-3.1-1-4.7l8.3-13.6
		c1.7-2.8,4.8-4.6,8.1-4.6h26.1C55.3,32.1,57,33.8,57,36z"/>
	<path class="st0" d="M46.1,29.3V22c0-3.1,2.5-5.6,5.6-5.6h28.6c3.1,0,5.6,2.5,5.6,5.6v28.6c0,3.1-2.5,5.6-5.6,5.6H51.7
		c-3.1,0-5.6-2.5-5.6-5.6v-7.9"/>
</g>
</svg>
