<?xml version="1.0" encoding="utf-8"?>
<!-- Generator: Adobe Illustrator 28.0.0, SVG Export Plug-In . SVG Version: 6.00 Build 0)  -->
<svg version="1.1" id="Layer_1" xmlns="http://www.w3.org/2000/svg" xmlns:xlink="http://www.w3.org/1999/xlink" x="0px" y="0px"
	 viewBox="0 0 96 96" style="enable-background:new 0 0 96 96;" xml:space="preserve">
<style type="text/css">
	.st0{fill:none;stroke:#00A14B;stroke-linecap:round;stroke-linejoin:round;stroke-miterlimit:10;}
	.st1{fill:#223F99;}
	.st2{fill:#ED3868;}
	.st3{fill:#00A14B;}
	.st4{fill:#FFDD15;}
</style>
<path class="st0" d="M57.5,28.1l13.3,13.3l8-8.4c1.9-2,1.8-5-0.1-7L70,17.2c-1.9-2-5.1-2-7-0.1L51.3,28.6l-20.4,6
	c-1.6,0.5-2.8,1.7-3.3,3.2L16,72.1c-0.5,1.5-0.2,3.1,0.9,4.3l0,0l19.4-18.6l0.2-0.1c-0.9-1.3-1.3-3-1.1-4.7c0.4-2.8,2.6-5,5.3-5.6
	c4.7-0.9,8.7,3.1,7.9,7.8c-0.5,2.7-2.7,4.9-5.4,5.3c-1.7,0.3-3.3-0.1-4.6-0.9l-0.1,0.2L20,79l0,0c1,1,2.5,1.4,3.9,0.9l34.9-11.8
	c1.6-0.5,2.8-1.8,3.2-3.4l5.5-20.4L54.2,30.8"/>
<rect x="-170.6" y="-59" class="st1" width="53.1" height="53.1"/>
<rect x="-170.6" y="4.8" class="st2" width="53.1" height="53.1"/>
<rect x="-170.6" y="68.6" class="st3" width="53.1" height="53.1"/>
<rect x="-170.6" y="132.4" class="st4" width="53.1" height="53.1"/>
</svg>
