<?xml version="1.0" encoding="utf-8"?>
<!-- Generator: Adobe Illustrator 28.0.0, SVG Export Plug-In . SVG Version: 6.00 Build 0)  -->
<svg version="1.1" id="Layer_1" xmlns="http://www.w3.org/2000/svg" xmlns:xlink="http://www.w3.org/1999/xlink" x="0px" y="0px"
	 viewBox="0 0 96 96" style="enable-background:new 0 0 96 96;" xml:space="preserve">
<style type="text/css">
	.st0{fill:none;stroke:#F93822;stroke-linecap:round;stroke-linejoin:round;stroke-miterlimit:10;}
	.st1{fill:#223F99;}
	.st2{fill:#ED3868;}
	.st3{fill:#F93822;}
	.st4{fill:#00A14B;}
	.st5{fill:#FFDD15;}
</style>
<g>
	<circle class="st0" cx="25.3" cy="42.2" r="6.4"/>
	<circle class="st0" cx="67" cy="26.6" r="10.1"/>
	<path class="st0" d="M67,71c0,4.7-3.8,8.4-8.4,8.4s-8.4-3.8-8.4-8.4c0-2.2,0.8-4.1,2.2-5.6c1.5-1.7,3.8-2.8,6.3-2.8
		C63.2,62.6,67,66.4,67,71z"/>
	<line class="st0" x1="30.3" y1="46.3" x2="52.3" y2="65.4"/>
	<line class="st0" x1="60" y1="62.6" x2="64.5" y2="36.7"/>
	<line class="st0" x1="57.5" y1="30.1" x2="31.2" y2="39.7"/>
</g>
<rect x="-401.6" y="-37" class="st1" width="53.1" height="53.1"/>
<rect x="-401.6" y="26.8" class="st2" width="53.1" height="53.1"/>
<rect x="-401.6" y="-111.2" class="st3" width="53.1" height="53.1"/>
<rect x="-401.6" y="90.6" class="st4" width="53.1" height="53.1"/>
<rect x="-401.6" y="154.4" class="st5" width="53.1" height="53.1"/>
</svg>
