<?xml version="1.0" encoding="utf-8"?>
<!-- Generator: Adobe Illustrator 27.7.0, SVG Export Plug-In . SVG Version: 6.00 Build 0)  -->
<svg version="1.1" id="Layer_1" xmlns="http://www.w3.org/2000/svg" xmlns:xlink="http://www.w3.org/1999/xlink" x="0px" y="0px"
	 viewBox="0 0 96 96" style="enable-background:new 0 0 96 96;" xml:space="preserve">
<style type="text/css">
	.st0{fill:none;stroke:#21409A;stroke-linecap:round;stroke-linejoin:round;stroke-miterlimit:10;}
</style>
<g>
	<polyline class="st0" points="81.6,28.2 86,28.2 86,73.7 10,73.7 10,28.2 14.4,28.2 	"/>
	<g>
		<g>
			<path class="st0" d="M78.6,67.8l-18.8,0c-4.6,0-9,2.2-11.7,5.9l0,0V28.2l0,0c2.7-3.7,7.1-5.9,11.7-5.9h18.8V67.8z"/>
			<path class="st0" d="M75,28.2H60.7c-3,0-6,1-8.4,2.7"/>
			<path class="st0" d="M75,38.9H60.7c-3,0-6,1-8.4,2.7"/>
			<path class="st0" d="M75,49.6H60.7c-3,0-6,1-8.4,2.7"/>
			<path class="st0" d="M75,60.3H60.7c-3,0-6,1-8.4,2.7"/>
		</g>
		<g>
			<path class="st0" d="M17.4,67.8l18.8,0c4.6,0,9,2.2,11.7,5.9l0,0V28.2l0,0c-2.7-3.7-7.1-5.9-11.7-5.9H17.4V67.8z"/>
			<path class="st0" d="M21,28.2h14.3c3,0,6,1,8.4,2.7"/>
			<path class="st0" d="M21,38.9h14.3c3,0,6,1,8.4,2.7"/>
			<path class="st0" d="M21,49.6h14.3c3,0,6,1,8.4,2.7"/>
			<path class="st0" d="M21,60.3h14.3c3,0,6,1,8.4,2.7"/>
		</g>
	</g>
</g>
</svg>
